# xmcd
#
# Track frame offsets:
#	150
#	20200
#	35965
#	54430
#	72496
#	89824
#	106788
#	123073
#	138170
#	160032
#	174075
#	189632
#
# Disc length: 2801 seconds
#
# Revision: 0
# Processed by: cddbd v1.5.2PL0 Copyright (c) Steve Scherf et al.
# Submitted via: EasyCDDAExtractor 12.0.0.1
#
DISCID=a20aef0c
DTITLE=Daniela Romo - De Mil Colores
DYEAR=1992
DGENRE=Latin
TTITLE0=De Mil Colores
TTITLE1=En El Espacio Del Placer
TTITLE2=Para Que Te Quedes Conmigo
TTITLE3=Lejos
TTITLE4=Yo No Se Vivir Sin Ti
TTITLE5=Atame A Tu Vida
TTITLE6=Que Vengan Los Bomberos
TTITLE7=El Dia Que Te Fuiste
TTITLE8=Anestesia
TTITLE9=A Veces
TTITLE10=Estoy Pensando En Cambiarte
TTITLE11=Amor A Contrapunto
EXTD=YEAR: 1982\n
EXTT0=
EXTT1=
EXTT2=
EXTT3=
EXTT4=
EXTT5=
EXTT6=
EXTT7=
EXTT8=
EXTT9=
EXTT10=
EXTT11=
PLAYORDER=
